<svg id="visual" viewBox="0 0 900 600" width="900" height="600" xmlns="http://www.w3.org/2000/svg" xmlns:xlink="http://www.w3.org/1999/xlink" version="1.1"><rect x="0" y="0" width="900" height="600" fill="#001220"></rect><path d="M0 353L21.5 363.7C43 374.3 86 395.7 128.8 401.2C171.7 406.7 214.3 396.3 257.2 396.8C300 397.3 343 408.7 385.8 409C428.7 409.3 471.3 398.7 514.2 396.2C557 393.7 600 399.3 642.8 403C685.7 406.7 728.3 408.3 771.2 413.3C814 418.3 857 426.7 878.5 430.8L900 435L900 601L878.5 601C857 601 814 601 771.2 601C728.3 601 685.7 601 642.8 601C600 601 557 601 514.2 601C471.3 601 428.7 601 385.8 601C343 601 300 601 257.2 601C214.3 601 171.7 601 128.8 601C86 601 43 601 21.5 601L0 601Z" fill="#fa7268"></path><path d="M0 463L21.5 451.5C43 440 86 417 128.8 419.8C171.7 422.7 214.3 451.3 257.2 460C300 468.7 343 457.3 385.8 456.8C428.7 456.3 471.3 466.7 514.2 472.3C557 478 600 479 642.8 467.3C685.7 455.7 728.3 431.3 771.2 419C814 406.7 857 406.3 878.5 406.2L900 406L900 601L878.5 601C857 601 814 601 771.2 601C728.3 601 685.7 601 642.8 601C600 601 557 601 514.2 601C471.3 601 428.7 601 385.8 601C343 601 300 601 257.2 601C214.3 601 171.7 601 128.8 601C86 601 43 601 21.5 601L0 601Z" fill="#ef5f67"></path><path d="M0 506L21.5 502.8C43 499.7 86 493.3 128.8 483C171.7 472.7 214.3 458.3 257.2 459.8C300 461.3 343 478.7 385.8 482C428.7 485.3 471.3 474.7 514.2 468.7C557 462.7 600 461.3 642.8 461C685.7 460.7 728.3 461.3 771.2 458.8C814 456.3 857 450.7 878.5 447.8L900 445L900 601L878.5 601C857 601 814 601 771.2 601C728.3 601 685.7 601 642.8 601C600 601 557 601 514.2 601C471.3 601 428.7 601 385.8 601C343 601 300 601 257.2 601C214.3 601 171.7 601 128.8 601C86 601 43 601 21.5 601L0 601Z" fill="#e34c67"></path><path d="M0 507L21.5 508.3C43 509.7 86 512.3 128.8 515.7C171.7 519 214.3 523 257.2 526.3C300 529.7 343 532.3 385.8 532.5C428.7 532.7 471.3 530.3 514.2 527.2C557 524 600 520 642.8 515.8C685.7 511.7 728.3 507.3 771.2 508.3C814 509.3 857 515.7 878.5 518.8L900 522L900 601L878.5 601C857 601 814 601 771.2 601C728.3 601 685.7 601 642.8 601C600 601 557 601 514.2 601C471.3 601 428.7 601 385.8 601C343 601 300 601 257.2 601C214.3 601 171.7 601 128.8 601C86 601 43 601 21.5 601L0 601Z" fill="#d53867"></path><path d="M0 542L21.5 542C43 542 86 542 128.8 544.3C171.7 546.7 214.3 551.3 257.2 553.7C300 556 343 556 385.8 555.5C428.7 555 471.3 554 514.2 552.2C557 550.3 600 547.7 642.8 544.7C685.7 541.7 728.3 538.3 771.2 539C814 539.7 857 544.3 878.5 546.7L900 549L900 601L878.5 601C857 601 814 601 771.2 601C728.3 601 685.7 601 642.8 601C600 601 557 601 514.2 601C471.3 601 428.7 601 385.8 601C343 601 300 601 257.2 601C214.3 601 171.7 601 128.8 601C86 601 43 601 21.5 601L0 601Z" fill="#c62368"></path></svg>